<svg width="86" height="20" viewBox="0 0 86 20" fill="none" xmlns="http://www.w3.org/2000/svg">
<path d="M0.904 20V0.119999H5.496V15.968H15.128V20H0.904ZM17.2829 20V0.119999H21.8749V20H17.2829ZM25.2854 20V15.436H28.9534V20H25.2854Z" fill="white"/>
<path d="M36.9687 8.632V20H32.3767V0.119999H36.0167L45.2287 11.824V0.119999H49.8207V20H46.0687L36.9687 8.632ZM67.5948 15.968V20H53.6228V0.119999H67.3428V4.152H58.2148V8.016H66.0548V11.74H58.2148V15.968H67.5948ZM85.5325 4.152H79.4845V20H74.8925V4.152H68.8165V0.119999H85.5325V4.152Z" fill="#42A9ED"/>
<path d="M0.904 20H-3.096V24H0.904V20ZM0.904 0.119999V-3.88H-3.096V0.119999H0.904ZM5.496 0.119999H9.496V-3.88H5.496V0.119999ZM5.496 15.968H1.496V19.968H5.496V15.968ZM15.128 15.968H19.128V11.968H15.128V15.968ZM15.128 20V24H19.128V20H15.128ZM4.904 20V0.119999H-3.096V20H4.904ZM0.904 4.12H5.496V-3.88H0.904V4.12ZM1.496 0.119999V15.968H9.496V0.119999H1.496ZM5.496 19.968H15.128V11.968H5.496V19.968ZM11.128 15.968V20H19.128V15.968H11.128ZM15.128 16H0.904V24H15.128V16ZM17.2829 20H13.2829V24H17.2829V20ZM17.2829 0.119999V-3.88H13.2829V0.119999H17.2829ZM21.8749 0.119999H25.8749V-3.88H21.8749V0.119999ZM21.8749 20V24H25.8749V20H21.8749ZM21.2829 20V0.119999H13.2829V20H21.2829ZM17.2829 4.12H21.8749V-3.88H17.2829V4.12ZM17.8749 0.119999V20H25.8749V0.119999H17.8749ZM21.8749 16H17.2829V24H21.8749V16ZM25.2854 20H21.2854V24H25.2854V20ZM25.2854 15.436V11.436H21.2854V15.436H25.2854ZM28.9534 15.436H32.9534V11.436H28.9534V15.436ZM28.9534 20V24H32.9534V20H28.9534ZM29.2854 20V15.436H21.2854V20H29.2854ZM25.2854 19.436H28.9534V11.436H25.2854V19.436ZM24.9534 15.436V20H32.9534V15.436H24.9534ZM28.9534 16H25.2854V24H28.9534V16ZM36.9687 8.632L40.0914 6.13228L32.9687 -2.76564V8.632H36.9687ZM36.9687 20V24H40.9687V20H36.9687ZM32.3767 20H28.3767V24H32.3767V20ZM32.3767 0.119999V-3.88H28.3767V0.119999H32.3767ZM36.0167 0.119999L39.1598 -2.35394L37.9587 -3.88H36.0167V0.119999ZM45.2287 11.824L42.0855 14.2979L49.2287 23.3735V11.824H45.2287ZM45.2287 0.119999V-3.88H41.2287V0.119999H45.2287ZM49.8207 0.119999H53.8207V-3.88H49.8207V0.119999ZM49.8207 20V24H53.8207V20H49.8207ZM46.0687 20L42.9459 22.4997L44.1469 24H46.0687V20ZM32.9687 8.632V20H40.9687V8.632H32.9687ZM36.9687 16H32.3767V24H36.9687V16ZM36.3767 20V0.119999H28.3767V20H36.3767ZM32.3767 4.12H36.0167V-3.88H32.3767V4.12ZM32.8735 2.59394L42.0855 14.2979L48.3718 9.35006L39.1598 -2.35394L32.8735 2.59394ZM49.2287 11.824V0.119999H41.2287V11.824H49.2287ZM45.2287 4.12H49.8207V-3.88H45.2287V4.12ZM45.8207 0.119999V20H53.8207V0.119999H45.8207ZM49.8207 16H46.0687V24H49.8207V16ZM49.1914 17.5003L40.0914 6.13228L33.8459 11.1317L42.9459 22.4997L49.1914 17.5003ZM67.5948 15.968H71.5948V11.968H67.5948V15.968ZM67.5948 20V24H71.5948V20H67.5948ZM53.6228 20H49.6228V24H53.6228V20ZM53.6228 0.119999V-3.88H49.6228V0.119999H53.6228ZM67.3428 0.119999H71.3428V-3.88H67.3428V0.119999ZM67.3428 4.152V8.152H71.3428V4.152H67.3428ZM58.2148 4.152V0.151999H54.2148V4.152H58.2148ZM58.2148 8.016H54.2148V12.016H58.2148V8.016ZM66.0548 8.016H70.0548V4.016H66.0548V8.016ZM66.0548 11.74V15.74H70.0548V11.74H66.0548ZM58.2148 11.74V7.74H54.2148V11.74H58.2148ZM58.2148 15.968H54.2148V19.968H58.2148V15.968ZM63.5948 15.968V20H71.5948V15.968H63.5948ZM67.5948 16H53.6228V24H67.5948V16ZM57.6228 20V0.119999H49.6228V20H57.6228ZM53.6228 4.12H67.3428V-3.88H53.6228V4.12ZM63.3428 0.119999V4.152H71.3428V0.119999H63.3428ZM67.3428 0.151999H58.2148V8.152H67.3428V0.151999ZM54.2148 4.152V8.016H62.2148V4.152H54.2148ZM58.2148 12.016H66.0548V4.016H58.2148V12.016ZM62.0548 8.016V11.74H70.0548V8.016H62.0548ZM66.0548 7.74H58.2148V15.74H66.0548V7.74ZM54.2148 11.74V15.968H62.2148V11.74H54.2148ZM58.2148 19.968H67.5948V11.968H58.2148V19.968ZM85.5325 4.152V8.152H89.5325V4.152H85.5325ZM79.4845 4.152V0.151999H75.4845V4.152H79.4845ZM79.4845 20V24H83.4845V20H79.4845ZM74.8925 20H70.8925V24H74.8925V20ZM74.8925 4.152H78.8925V0.151999H74.8925V4.152ZM68.8165 4.152H64.8165V8.152H68.8165V4.152ZM68.8165 0.119999V-3.88H64.8165V0.119999H68.8165ZM85.5325 0.119999H89.5325V-3.88H85.5325V0.119999ZM85.5325 0.151999H79.4845V8.152H85.5325V0.151999ZM75.4845 4.152V20H83.4845V4.152H75.4845ZM79.4845 16H74.8925V24H79.4845V16ZM78.8925 20V4.152H70.8925V20H78.8925ZM74.8925 0.151999H68.8165V8.152H74.8925V0.151999ZM72.8165 4.152V0.119999H64.8165V4.152H72.8165ZM68.8165 4.12H85.5325V-3.88H68.8165V4.12ZM81.5325 0.119999V4.152H89.5325V0.119999H81.5325Z" fill="black"/>
</svg>
