<svg width="9" height="7" viewBox="0 0 9 7" fill="none" xmlns="http://www.w3.org/2000/svg">
<path d="M0.0230008 1.63417C0.0230008 1.56274 0.0587159 1.48238 0.112287 1.42881L0.558716 0.982383C0.612287 0.928812 0.692644 0.893098 0.764072 0.893098C0.835501 0.893098 0.915858 0.928812 0.96943 0.982383L4.47836 4.49131L7.98729 0.982382C8.04086 0.928811 8.12122 0.893097 8.19264 0.893097C8.273 0.893097 8.34443 0.928811 8.398 0.982382L8.84443 1.42881C8.898 1.48238 8.93372 1.56274 8.93372 1.63417C8.93372 1.7056 8.898 1.78595 8.84443 1.83953L4.68372 6.00024C4.63014 6.05381 4.54979 6.08953 4.47836 6.08953C4.40693 6.08953 4.32657 6.05381 4.273 6.00024L0.112287 1.83953C0.0587159 1.78596 0.0230008 1.7056 0.0230008 1.63417Z" fill="white"/>
</svg>
